<svg width="36" height="37" viewBox="0 0 36 37" fill="none" xmlns="http://www.w3.org/2000/svg">
<path d="M27.99 18.4999C27.99 21.1507 26.937 23.693 25.0625 25.5674C23.1881 27.4418 20.6458 28.4949 17.995 28.4949C15.3442 28.4949 12.8019 27.4418 10.9275 25.5674C9.05304 23.693 8 21.1507 8 18.4999C8 15.849 9.05304 13.3068 10.9275 11.4324C12.8019 9.55792 15.3442 8.50488 17.995 8.50488C20.6458 8.50488 23.1881 9.55792 25.0625 11.4324C26.937 13.3068 27.99 15.849 27.99 18.4999Z" fill="white" fill-opacity="0.91"/>
<path d="M18 8.5C12.47 8.5 8 12.97 8 18.5C8 24.02 12.47 28.5 18 28.5C23.52 28.5 28 24.02 28 18.5C28 12.97 23.52 8.5 18 8.5ZM13.32 12.5H17.85C18.2 12.5 18.55 12.64 18.78 12.87L24.62 18.71C24.85 18.94 24.99 19.29 24.99 19.64C24.99 19.99 24.86 20.31 24.62 20.54L20.06 25.12C19.82 25.36 19.51 25.5 19.15 25.5C18.8 25.5 18.45 25.36 18.22 25.13L12.37 19.28C12.13 19.04 12 18.7 12 18.34V13.81C12 13.09 12.59 12.5 13.31 12.5H13.32ZM14.28 13.81C13.75 13.81 13.32 14.23 13.32 14.77C13.32 15.3 13.74 15.73 14.28 15.73C14.81 15.73 15.24 15.31 15.24 14.77C15.24 14.24 14.82 13.81 14.28 13.81Z" fill="white" fill-opacity="0.91"/>
<path d="M24.61 18.72L18.76 12.87C18.53 12.64 18.2 12.5 17.85 12.5H13.3C12.58 12.5 12 13.08 12 13.8V18.35C12 18.7 12.14 19.03 12.38 19.27L18.22 25.12C18.45 25.35 18.77 25.49 19.13 25.49C19.48 25.49 19.81 25.35 20.04 25.11L24.61 20.56C24.85 20.33 25 20 25 19.65C25 19.29 24.85 18.96 24.61 18.72ZM14.27 15.75C13.74 15.75 13.3 15.32 13.3 14.78C13.3 14.25 13.73 13.81 14.27 13.81C14.8 13.81 15.24 14.24 15.24 14.78C15.24 15.31 14.81 15.75 14.27 15.75Z" fill="black" fill-opacity="0.15"/>
</svg>
