<svg width="20" height="21" viewBox="0 0 20 21" fill="none" xmlns="http://www.w3.org/2000/svg">
<path d="M17.234 8.98676C17.465 8.28372 17.5046 7.53309 17.3487 6.81021C17.1928 6.08733 16.8468 5.41762 16.3458 4.8683C15.8446 4.31899 15.2058 3.90939 14.4935 3.6806C13.7812 3.45182 13.0204 3.41191 12.2876 3.56488C11.7871 3.0144 11.1485 2.60374 10.436 2.37426C9.72352 2.14479 8.96227 2.1046 8.22901 2.25773C7.49575 2.41087 6.81634 2.75194 6.25919 3.24657C5.70204 3.74121 5.28684 4.37195 5.05539 5.0753C4.32137 5.22727 3.64093 5.56752 3.08271 6.06172C2.52449 6.55593 2.10822 7.18661 1.87587 7.89019C1.64351 8.59376 1.6033 9.34534 1.75928 10.0692C1.91527 10.7929 2.26192 11.4633 2.76431 12.0128C2.57692 12.5748 2.51296 13.1696 2.57667 13.7578C2.64038 14.346 2.83032 14.9141 3.13384 15.4243C3.58409 16.1958 4.27074 16.8065 5.09504 17.1688C5.91935 17.5309 6.83883 17.6258 7.72127 17.4398C8.11896 17.8805 8.60693 18.2328 9.15302 18.4735C9.69902 18.7141 10.2906 18.8376 10.8887 18.8357C11.7923 18.8357 12.6728 18.5528 13.4033 18.0277C14.1337 17.5027 14.6764 16.7625 14.9534 15.9138C15.5402 15.7948 16.0944 15.5539 16.5795 15.2073C17.0647 14.8607 17.4695 14.4163 17.7672 13.9034C18.2148 13.133 18.4042 12.2428 18.3084 11.3598C18.2127 10.4768 17.8367 9.64634 17.234 8.98676ZM10.8992 17.7472C10.1585 17.7472 9.44118 17.491 8.8721 17.0232L8.97243 16.9659L12.3351 15.0493C12.4218 15.0038 12.4939 14.9353 12.5433 14.8516C12.5928 14.7678 12.6175 14.6722 12.6148 14.5753V9.88776L14.0349 10.7003C14.0424 10.7033 14.0488 10.7083 14.0535 10.7148C14.0582 10.7212 14.0609 10.7288 14.0613 10.7368V14.6118C14.0627 15.0239 13.9814 15.4323 13.8223 15.8133C13.663 16.1943 13.429 16.5405 13.1336 16.8319C12.8383 17.1233 12.4873 17.3543 12.1012 17.5113C11.715 17.6684 11.3011 17.7485 10.8833 17.7472H10.8992ZM4.08406 14.8826C3.71738 14.2523 3.58485 13.5156 3.70925 12.7993L3.80955 12.8565L7.17226 14.7732C7.25251 14.8189 7.34354 14.843 7.43621 14.843C7.52887 14.843 7.61991 14.8189 7.70016 14.7732L11.8125 12.4347V14.044C11.8158 14.0505 11.8174 14.0577 11.8174 14.0648C11.8174 14.0721 11.8158 14.0793 11.8125 14.0857L8.41285 16.0232C8.05271 16.2288 7.65506 16.3625 7.24258 16.4164C6.83012 16.4704 6.41091 16.4437 6.00892 16.3378C5.60692 16.2318 5.23002 16.0488 4.89975 15.7991C4.56947 15.5494 4.2923 15.238 4.08406 14.8826ZM3.19719 7.65342C3.57238 7.01725 4.16314 6.53215 4.86534 6.28363V10.2263C4.86264 10.3213 4.8863 10.4151 4.93375 10.4978C4.98121 10.5803 5.05065 10.6486 5.13457 10.6951L9.22577 13.0232L7.80573 13.8357C7.79033 13.8408 7.77363 13.8408 7.75822 13.8357L4.35857 11.8982C3.63302 11.4842 3.10341 10.8033 2.88572 10.0048C2.66803 9.20617 2.78003 8.35504 3.19719 7.6378V7.65342ZM14.8796 10.3305L10.7725 7.97634L12.1926 7.16905C12.1996 7.16435 12.2078 7.16183 12.2163 7.16183C12.2248 7.16183 12.2331 7.16435 12.2401 7.16905L15.6398 9.10651C16.1589 9.40317 16.582 9.83917 16.8598 10.3638C17.1376 10.8885 17.2586 11.4802 17.2088 12.0701C17.159 12.6599 16.9405 13.2238 16.5786 13.6958C16.2167 14.1679 15.7263 14.5289 15.1646 14.7368V10.794C15.1615 10.6991 15.1337 10.6066 15.0838 10.5253C15.0338 10.4442 14.9635 10.3771 14.8796 10.3305ZM16.2943 8.24717L16.194 8.18467L12.8366 6.25759C12.7533 6.20689 12.6573 6.18004 12.5594 6.18004C12.4616 6.18004 12.3656 6.20689 12.2823 6.25759L8.17527 8.59613V6.96071C8.1711 6.95359 8.1689 6.9455 8.1689 6.93727C8.1689 6.92905 8.1711 6.92096 8.17527 6.91384L11.5802 4.98155C12.1012 4.68531 12.6969 4.54153 13.2977 4.567C13.8984 4.59246 14.4795 4.78614 14.9728 5.12537C15.4661 5.4646 15.8514 5.93538 16.0835 6.48266C16.3157 7.02995 16.3852 7.63113 16.2838 8.21592L16.2943 8.24717ZM7.39926 11.1013L5.97393 10.294C5.96051 10.2836 5.95118 10.2688 5.94753 10.2523V6.3878C5.94756 5.79391 6.11911 5.21233 6.44208 4.71117C6.76506 4.21002 7.22609 3.81004 7.77117 3.55809C8.31626 3.30614 8.92285 3.21265 9.51985 3.28856C10.1168 3.36448 10.6795 3.60667 11.142 3.98675L11.0523 4.04405L7.67904 5.96071C7.59233 6.00621 7.52022 6.07468 7.47079 6.15841C7.42137 6.24214 7.39659 6.33781 7.39926 6.43467V11.1013ZM8.16998 9.46067L9.99652 8.41905L11.8283 9.46067V11.544L9.99652 12.5857L8.16471 11.544L8.16998 9.46067Z" fill="#828282"/>
<mask id="mask0_71_490" style="mask-type:luminance" maskUnits="userSpaceOnUse" x="0" y="1" width="20" height="19">
<path d="M19.1673 1.3335H0.833984V19.6668H19.1673V1.3335Z" fill="white"/>
<path d="M17.236 8.98724C17.467 8.28421 17.5066 7.53358 17.3506 6.8107C17.1947 6.08782 16.8488 5.41811 16.3477 4.86879C15.8466 4.31948 15.2078 3.90988 14.4955 3.68109C13.7831 3.45231 13.0224 3.4124 12.2896 3.56537C11.7891 3.01488 11.1505 2.60423 10.438 2.37475C9.72547 2.14528 8.96422 2.10508 8.23096 2.25822C7.4977 2.41136 6.81829 2.75243 6.26114 3.24706C5.70399 3.7417 5.28879 4.37244 5.05734 5.07578C4.32332 5.22776 3.64289 5.56801 3.08466 6.06221C2.52644 6.55642 2.11017 7.1871 1.87782 7.89068C1.64546 8.59425 1.60525 9.34583 1.76124 10.0697C1.91722 10.7934 2.26388 11.4638 2.76626 12.0132C2.57888 12.5752 2.51491 13.1701 2.57862 13.7582C2.64234 14.3465 2.83227 14.9146 3.13579 15.4247C3.58604 16.1962 4.27269 16.807 5.09699 17.1692C5.9213 17.5314 6.84079 17.6263 7.72323 17.4403C8.12091 17.881 8.60889 18.2333 9.15497 18.474C9.70097 18.7146 10.2926 18.8381 10.8906 18.8362C11.7943 18.8362 12.6747 18.5532 13.4052 18.0282C14.1356 17.5032 14.6784 16.763 14.9554 15.9143C15.5421 15.7952 16.0964 15.5544 16.5815 15.2077C17.0666 14.8612 17.4715 14.4167 17.7691 13.9039C18.2167 13.1335 18.4061 12.2432 18.3104 11.3603C18.2146 10.4773 17.8386 9.64683 17.236 8.98724ZM10.9011 17.7477C10.1605 17.7477 9.44314 17.4915 8.87405 17.0237L8.97439 16.9664L12.3371 15.0497C12.4237 15.0042 12.4959 14.9357 12.5453 14.8521C12.5947 14.7683 12.6195 14.6727 12.6168 14.5757V9.88824L14.0369 10.7007C14.0444 10.7037 14.0508 10.7087 14.0555 10.7152C14.0601 10.7217 14.0629 10.7293 14.0633 10.7372V14.6122C14.0646 15.0244 13.9834 15.4327 13.8242 15.8137C13.665 16.1947 13.431 16.541 13.1356 16.8324C12.8402 17.1238 12.4893 17.3547 12.1031 17.5118C11.717 17.6689 11.3031 17.749 10.8853 17.7477H10.9011ZM4.08601 14.8831C3.71934 14.2527 3.5868 13.5161 3.7112 12.7997L3.8115 12.857L7.17421 14.7737C7.25446 14.8194 7.34549 14.8435 7.43816 14.8435C7.53083 14.8435 7.62186 14.8194 7.70211 14.7737L11.8145 12.4352V14.0445C11.8177 14.051 11.8194 14.0582 11.8194 14.0653C11.8194 14.0726 11.8177 14.0797 11.8145 14.0862L8.4148 16.0237C8.05466 16.2293 7.65701 16.363 7.24454 16.4169C6.83207 16.4709 6.41286 16.4442 6.01087 16.3382C5.60888 16.2323 5.23198 16.0492 4.9017 15.7996C4.57143 15.5499 4.29425 15.2385 4.08601 14.8831ZM3.19914 7.65391C3.57434 7.01773 4.16509 6.53264 4.86729 6.28412V10.2268C4.86459 10.3217 4.88825 10.4156 4.9357 10.4982C4.98316 10.5808 5.0526 10.6491 5.13653 10.6956L9.22772 13.0237L7.80769 13.8362C7.79229 13.8413 7.77559 13.8413 7.76018 13.8362L4.36052 11.8987C3.63498 11.4847 3.10536 10.8038 2.88767 10.0052C2.66999 9.20666 2.78199 8.35553 3.19914 7.63828V7.65391ZM14.8816 10.331L10.7745 7.97683L12.1946 7.16953C12.2016 7.16483 12.2098 7.16232 12.2183 7.16232C12.2267 7.16232 12.2351 7.16483 12.2421 7.16953L15.6417 9.10699C16.1609 9.40366 16.584 9.83966 16.8617 10.3643C17.1396 10.889 17.2606 11.4807 17.2108 12.0706C17.161 12.6604 16.9425 13.2242 16.5806 13.6963C16.2186 14.1684 15.7283 14.5294 15.1666 14.7372V10.7945C15.1635 10.6996 15.1356 10.6071 15.0857 10.5258C15.0358 10.4447 14.9655 10.3776 14.8816 10.331ZM16.2963 8.24766L16.196 8.18516L12.8386 6.25808C12.7552 6.20738 12.6593 6.18053 12.5614 6.18053C12.4636 6.18053 12.3676 6.20738 12.2843 6.25808L8.17722 8.59662V6.9612C8.17305 6.95408 8.17085 6.94599 8.17085 6.93776C8.17085 6.92953 8.17305 6.92145 8.17722 6.91433L11.5821 4.98203C12.1031 4.6858 12.6989 4.54202 13.2996 4.56748C13.9004 4.59295 14.4815 4.78663 14.9748 5.12586C15.4681 5.46509 15.8534 5.93587 16.0855 6.48315C16.3176 7.03044 16.3871 7.63162 16.2857 8.21641L16.2963 8.24766ZM7.40121 11.1018L5.97589 10.2945C5.96246 10.2841 5.95314 10.2693 5.94949 10.2528V6.38828C5.94951 5.7944 6.12106 5.21282 6.44404 4.71166C6.76701 4.21051 7.22804 3.81053 7.77313 3.55858C8.31821 3.30663 8.9248 3.21313 9.5218 3.28905C10.1188 3.36497 10.6815 3.60716 11.144 3.98724L11.0543 4.04453L7.68099 5.9612C7.59429 6.0067 7.52217 6.07517 7.47274 6.1589C7.42332 6.24263 7.39854 6.3383 7.40121 6.43516V11.1018ZM8.17194 9.46116L9.99847 8.41953L11.8303 9.46116V11.5445L9.99847 12.5862L8.16666 11.5445L8.17194 9.46116Z" fill="black"/>
</mask>
<g mask="url(#mask0_71_490)">
<path d="M17.236 8.98724C17.467 8.28421 17.5066 7.53358 17.3506 6.8107C17.1947 6.08782 16.8488 5.41811 16.3477 4.86879C15.8466 4.31948 15.2078 3.90988 14.4955 3.68109C13.7831 3.45231 13.0224 3.4124 12.2896 3.56537C11.7891 3.01488 11.1505 2.60423 10.438 2.37475C9.72547 2.14528 8.96422 2.10508 8.23096 2.25822C7.4977 2.41136 6.81829 2.75243 6.26114 3.24706C5.70399 3.7417 5.28879 4.37244 5.05734 5.07578C4.32332 5.22776 3.64289 5.56801 3.08466 6.06221C2.52644 6.55642 2.11017 7.1871 1.87782 7.89068C1.64546 8.59425 1.60525 9.34583 1.76124 10.0697C1.91722 10.7934 2.26388 11.4638 2.76626 12.0132C2.57888 12.5752 2.51491 13.1701 2.57862 13.7582C2.64234 14.3465 2.83227 14.9146 3.13579 15.4247C3.58604 16.1962 4.27269 16.807 5.09699 17.1692C5.9213 17.5314 6.84079 17.6263 7.72323 17.4403C8.12091 17.881 8.60889 18.2333 9.15497 18.474C9.70097 18.7146 10.2926 18.8381 10.8906 18.8362C11.7943 18.8362 12.6747 18.5532 13.4052 18.0282C14.1356 17.5032 14.6784 16.763 14.9554 15.9143C15.5421 15.7952 16.0964 15.5544 16.5815 15.2077C17.0666 14.8612 17.4715 14.4167 17.7691 13.9039C18.2167 13.1335 18.4061 12.2432 18.3104 11.3603C18.2146 10.4773 17.8386 9.64683 17.236 8.98724ZM10.9011 17.7477C10.1605 17.7477 9.44314 17.4915 8.87405 17.0237L8.97439 16.9664L12.3371 15.0497C12.4237 15.0042 12.4959 14.9357 12.5453 14.8521C12.5947 14.7683 12.6195 14.6727 12.6168 14.5757V9.88824L14.0369 10.7007C14.0444 10.7037 14.0508 10.7087 14.0555 10.7152C14.0601 10.7217 14.0629 10.7293 14.0633 10.7372V14.6122C14.0646 15.0244 13.9834 15.4327 13.8242 15.8137C13.665 16.1947 13.431 16.541 13.1356 16.8324C12.8402 17.1238 12.4893 17.3547 12.1031 17.5118C11.717 17.6689 11.3031 17.749 10.8853 17.7477H10.9011ZM4.08601 14.8831C3.71934 14.2527 3.5868 13.5161 3.7112 12.7997L3.8115 12.857L7.17421 14.7737C7.25446 14.8194 7.34549 14.8435 7.43816 14.8435C7.53083 14.8435 7.62186 14.8194 7.70211 14.7737L11.8145 12.4352V14.0445C11.8177 14.051 11.8194 14.0582 11.8194 14.0653C11.8194 14.0726 11.8177 14.0797 11.8145 14.0862L8.4148 16.0237C8.05466 16.2293 7.65701 16.363 7.24454 16.4169C6.83207 16.4709 6.41286 16.4442 6.01087 16.3382C5.60888 16.2323 5.23198 16.0492 4.9017 15.7996C4.57143 15.5499 4.29425 15.2385 4.08601 14.8831ZM3.19914 7.65391C3.57434 7.01773 4.16509 6.53264 4.86729 6.28412V10.2268C4.86459 10.3217 4.88825 10.4156 4.9357 10.4982C4.98316 10.5808 5.0526 10.6491 5.13653 10.6956L9.22772 13.0237L7.80769 13.8362C7.79229 13.8413 7.77559 13.8413 7.76018 13.8362L4.36052 11.8987C3.63498 11.4847 3.10536 10.8038 2.88767 10.0052C2.66999 9.20666 2.78199 8.35553 3.19914 7.63828V7.65391ZM14.8816 10.331L10.7745 7.97683L12.1946 7.16953C12.2016 7.16483 12.2098 7.16232 12.2183 7.16232C12.2267 7.16232 12.2351 7.16483 12.2421 7.16953L15.6417 9.10699C16.1609 9.40366 16.584 9.83966 16.8617 10.3643C17.1396 10.889 17.2606 11.4807 17.2108 12.0706C17.161 12.6604 16.9425 13.2242 16.5806 13.6963C16.2186 14.1684 15.7283 14.5294 15.1666 14.7372V10.7945C15.1635 10.6996 15.1356 10.6071 15.0857 10.5258C15.0358 10.4447 14.9655 10.3776 14.8816 10.331ZM16.2963 8.24766L16.196 8.18516L12.8386 6.25808C12.7552 6.20738 12.6593 6.18053 12.5614 6.18053C12.4636 6.18053 12.3676 6.20738 12.2843 6.25808L8.17722 8.59662V6.9612C8.17305 6.95408 8.17085 6.94599 8.17085 6.93776C8.17085 6.92953 8.17305 6.92145 8.17722 6.91433L11.5821 4.98203C12.1031 4.6858 12.6989 4.54202 13.2996 4.56748C13.9004 4.59295 14.4815 4.78663 14.9748 5.12586C15.4681 5.46509 15.8534 5.93587 16.0855 6.48315C16.3176 7.03044 16.3871 7.63162 16.2857 8.21641L16.2963 8.24766ZM7.40121 11.1018L5.97589 10.2945C5.96246 10.2841 5.95314 10.2693 5.94949 10.2528V6.38828C5.94951 5.7944 6.12106 5.21282 6.44404 4.71166C6.76701 4.21051 7.22804 3.81053 7.77313 3.55858C8.31821 3.30663 8.9248 3.21313 9.5218 3.28905C10.1188 3.36497 10.6815 3.60716 11.144 3.98724L11.0543 4.04453L7.68099 5.9612C7.59429 6.0067 7.52217 6.07517 7.47274 6.1589C7.42332 6.24263 7.39854 6.3383 7.40121 6.43516V11.1018ZM8.17194 9.46116L9.99847 8.41953L11.8303 9.46116V11.5445L9.99847 12.5862L8.16666 11.5445L8.17194 9.46116Z" stroke="#828282" stroke-width="0.166667"/>
</g>
</svg>
