<svg width="24" height="25" viewBox="0 0 24 25" fill="none" xmlns="http://www.w3.org/2000/svg">
<path d="M19.4499 4.38017C20.5699 6.20017 19.9299 8.53017 18.0299 9.60017L16.7099 10.3402L17.6499 10.7502C19.0099 11.3302 19.9199 12.6002 19.9999 14.0202C20.0799 15.4502 19.3199 16.7902 18.0299 17.5102L10.0299 21.9802C8.1199 23.0402 5.6799 22.4402 4.5499 20.6302C3.4299 18.8102 4.0699 16.4802 5.9699 15.4102L7.2999 14.6702L6.3599 14.2602C4.9999 13.6802 4.0899 12.4102 4.0099 10.9902C3.9299 9.56017 4.6899 8.22017 5.9799 7.50017L13.9799 3.03017C15.8899 1.97017 18.3299 2.57017 19.4599 4.38017H19.4499Z" fill="#FF0033"/>
<path d="M10 15.5L15 12.5L10 9.5V15.5Z" fill="white"/>
</svg>
