<svg width="24" height="25" viewBox="0 0 24 25" fill="none" xmlns="http://www.w3.org/2000/svg">
<path fill-rule="evenodd" clip-rule="evenodd" d="M3.75 5.5C3.336 5.5 3 5.836 3 6.25C3 6.664 3.336 7 3.75 7H20.25C20.664 7 21 6.664 21 6.25C21 5.836 20.664 5.5 20.25 5.5H3.75ZM3.75 9.5C3.336 9.5 3 9.836 3 10.25C3 10.664 3.336 11 3.75 11H20.25C20.664 11 21 10.664 21 10.25C21 9.836 20.664 9.5 20.25 9.5H3.75ZM3.75 13.5C3.336 13.5 3 13.836 3 14.25C3 14.664 3.336 15 3.75 15H12.25C12.664 15 13 14.664 13 14.25C13 13.836 12.664 13.5 12.25 13.5H3.75ZM12.25 17.5C12.664 17.5 13 17.836 13 18.25C13 18.664 12.664 19 12.25 19H3.75C3.336 19 3 18.664 3 18.25C3 17.836 3.336 17.5 3.75 17.5H12.25ZM15.748 13.928C15.415 13.737 15 13.978 15 14.362V20.638C15 21.022 15.415 21.263 15.748 21.072L22 17.5L15.748 13.928Z" fill="white"/>
</svg>
