<svg width="24" height="25" viewBox="0 0 24 25" fill="none" xmlns="http://www.w3.org/2000/svg">
<path fill-rule="evenodd" clip-rule="evenodd" d="M14.5 16.565L15.249 16.131C17.196 15.005 18.5 12.904 18.5 10.5C18.5 6.91 15.59 4 12 4C8.41 4 5.5 6.91 5.5 10.5C5.5 12.904 6.804 15.005 8.751 16.131L9.5 16.565V18H14.5V16.565ZM16 17.43C18.391 16.047 20 13.461 20 10.5C20 6.082 16.418 2.5 12 2.5C7.582 2.5 4 6.082 4 10.5C4 13.461 5.609 16.046 8 17.43V19.5H16V17.43ZM16 20.5V21C16 21.552 15.552 22 15 22H13.937C13.913 22.09 13.884 22.179 13.847 22.265C13.747 22.508 13.6 22.728 13.414 22.915C13.229 23.1 13.008 23.247 12.765 23.348C12.523 23.448 12.263 23.5 12 23.5C11.737 23.5 11.477 23.448 11.235 23.348C10.992 23.248 10.772 23.1 10.585 22.914C10.4 22.728 10.253 22.508 10.152 22.265C10.116 22.179 10.087 22.09 10.064 22H9C8.448 22 8 21.552 8 21V20.5H16Z" fill="white"/>
</svg>
