<svg width="24" height="25" viewBox="0 0 24 25" fill="none" xmlns="http://www.w3.org/2000/svg">
<path d="M12 23.5C18.0751 23.5 23 18.5751 23 12.5C23 6.42487 18.0751 1.5 12 1.5C5.92487 1.5 1 6.42487 1 12.5C1 18.5751 5.92487 23.5 12 23.5Z" fill="#FF0033"/>
<path d="M12 6.75C15.17 6.75 17.75 9.33 17.75 12.5C17.75 15.67 15.17 18.25 12 18.25C8.83 18.25 6.25 15.67 6.25 12.5C6.25 9.33 8.83 6.75 12 6.75ZM12 5.75C8.27 5.75 5.25 8.77 5.25 12.5C5.25 16.23 8.27 19.25 12 19.25C15.73 19.25 18.75 16.23 18.75 12.5C18.75 8.77 15.73 5.75 12 5.75Z" fill="white"/>
<path d="M10 15.5L15 12.5L10 9.5V15.5Z" fill="white"/>
</svg>
