<svg width="24" height="25" viewBox="0 0 24 25" fill="none" xmlns="http://www.w3.org/2000/svg">
<path fill-rule="evenodd" clip-rule="evenodd" d="M4.75 3.5H4V21.75C4 22.164 4.336 22.5 4.75 22.5C5.164 22.5 5.5 22.164 5.5 21.75V14.5H11L11.585 15.67C11.839 16.179 12.359 16.5 12.927 16.5H18.5C19.328 16.5 20 15.828 20 15V7C20 6.172 19.328 5.5 18.5 5.5H13L12.415 4.33C12.16 3.82 11.64 3.5 11.073 3.5H4.75ZM5.5 13H11.927L12.342 13.83L12.927 15H18.5V7H12.073L11.658 6.17L11.073 5H5.5V13Z" fill="white"/>
</svg>
