<svg width="12" height="13" viewBox="0 0 12 13" fill="none" xmlns="http://www.w3.org/2000/svg">
<g clip-path="url(#clip0_71_517)">
<path d="M5 4.5L8 6.5L5 8.5V4.5Z" fill="white"/>
<path fill-rule="evenodd" clip-rule="evenodd" d="M8.99965 6.49988C8.99921 5.70464 8.68305 4.94211 8.12065 4.37988L8.82765 3.67188C9.1991 4.04331 9.49376 4.48428 9.69479 4.96959C9.89582 5.45491 9.99929 5.97507 9.99929 6.50038C9.99929 7.02568 9.89582 7.54584 9.69479 8.03116C9.49376 8.51647 9.1991 8.95744 8.82765 9.32888L8.12065 8.62187C8.39936 8.34324 8.62044 8.01243 8.77127 7.64833C8.92209 7.28423 8.99969 6.89398 8.99965 6.49988ZM2.99965 6.49988C3.00008 5.70464 3.31624 4.94211 3.87865 4.37988L3.17165 3.67188C2.80019 4.04331 2.50553 4.48428 2.3045 4.96959C2.10347 5.45491 2 5.97507 2 6.50038C2 7.02568 2.10347 7.54584 2.3045 8.03116C2.50553 8.51647 2.80019 8.95744 3.17165 9.32888L3.87865 8.62187C3.59993 8.34324 3.37885 8.01243 3.22802 7.64833C3.0772 7.28423 2.9996 6.89398 2.99965 6.49988Z" fill="white"/>
<path fill-rule="evenodd" clip-rule="evenodd" d="M11.0002 6.49981C11.0002 5.17398 10.4736 3.90244 9.53622 2.96481L10.2432 2.25781C11.3684 3.38302 12.0004 4.90908 12.0004 6.50031C12.0004 8.09154 11.3684 9.61761 10.2432 10.7428L9.53622 10.0358C10.0005 9.57143 10.3687 9.02014 10.6199 8.41343C10.8711 7.80672 11.0003 7.15647 11.0002 6.49981ZM1.00022 6.49981C1.00024 5.17398 1.52684 3.90244 2.46422 2.96481L1.75722 2.25781C0.632086 3.38302 0 4.90908 0 6.50031C0 8.09154 0.632086 9.61761 1.75722 10.7428L2.46422 10.0358C1.99995 9.57143 1.63171 9.02014 1.38052 8.41343C1.12932 7.80672 1.0001 7.15647 1.00022 6.49981Z" fill="white"/>
</g>
<defs>
<clipPath id="clip0_71_517">
<rect width="12" height="12" fill="white" transform="translate(0 0.5)"/>
</clipPath>
</defs>
</svg>
