<svg width="24" height="25" viewBox="0 0 24 25" fill="none" xmlns="http://www.w3.org/2000/svg">
<path fill-rule="evenodd" clip-rule="evenodd" d="M2 5.621V3.5L2.94 4.44L3.5 5L4 5.5L4.94 4.56L5.06 4.44L6 3.5L6.94 4.44L7.06 4.56L8 5.5L8.94 4.56L9.06 4.44L10 3.5L10.94 4.44L11.06 4.56L12 5.5L12.94 4.56L13.06 4.44L14 3.5L14.94 4.44L15.06 4.56L16 5.5L16.94 4.56L17.06 4.44L18 3.5L18.94 4.44L19.06 4.56L20 5.5L20.5 5L21.06 4.44L22 3.5V19.5C22 20.605 21.105 21.5 20 21.5H4C2.895 21.5 2 20.605 2 19.5V5.621ZM10.75 20H6.25V14.75H10.75V20ZM12 20V13.5H5V20H4C3.724 20 3.5 19.776 3.5 19.5V8.15L6.014 5.636L6.939 6.561L8 7.62L9.06 6.56L10 5.62L10.94 6.56L12 7.62L13.06 6.56L14 5.62L14.94 6.56L16 7.62L17.06 6.56L17.986 5.635L20.5 8.15V19.5C20.5 19.776 20.276 20 20 20H12ZM19 9.5V11.5H5V9.5H19ZM14 13.5H19V15H14V13.5ZM19 16.5H14V18H19V16.5Z" fill="white"/>
</svg>
