<svg width="24" height="25" viewBox="0 0 24 25" fill="none" xmlns="http://www.w3.org/2000/svg">
<path fill-rule="evenodd" clip-rule="evenodd" d="M7.61016 16.2192L8.00216 15.9992V13.7592L7.46816 13.5312L6.52616 13.1272C5.65716 12.7552 5.12616 11.9772 5.08016 11.1532C5.03316 10.3302 5.47016 9.51117 6.28316 9.05617L15.1302 4.09017C16.3612 3.40117 17.9152 3.82017 18.5962 4.92317C19.2482 5.98117 18.9092 7.37517 17.7172 8.04117L16.3902 8.78417L16.0022 9.00117V11.2442L16.5322 11.4712L17.4742 11.8752C18.3432 12.2472 18.8742 13.0252 18.9202 13.8492C18.9672 14.6722 18.5302 15.4912 17.7172 15.9462L17.7152 15.9472L8.87016 20.9112L8.86916 20.9122C7.63816 21.6002 6.08516 21.1812 5.40416 20.0782C4.75216 19.0202 5.09116 17.6272 6.28316 16.9602L7.61016 16.2192ZM9.60316 22.2212C7.69816 23.2872 5.24716 22.6812 4.12816 20.8662C3.07116 19.1532 3.58016 16.9762 5.24516 15.8412C5.34405 15.7738 5.44581 15.7107 5.55016 15.6522L6.87716 14.9102L5.93516 14.5062C5.68637 14.3998 5.44886 14.2688 5.22616 14.1152C4.26316 13.4492 3.64816 12.3972 3.58216 11.2382C3.50216 9.81617 4.26116 8.46817 5.55016 7.74817L14.3972 2.78217C16.3022 1.71617 18.7532 2.32217 19.8722 4.13717C20.9292 5.85017 20.4202 8.02717 18.7552 9.16217C18.6563 9.22995 18.5546 9.29335 18.4502 9.35217L17.1232 10.0942L18.0652 10.4972C18.3182 10.6062 18.5552 10.7372 18.7742 10.8892C19.7372 11.5552 20.3522 12.6062 20.4182 13.7652C20.4982 15.1882 19.7392 16.5352 18.4502 17.2562L9.60316 22.2212ZM10.0002 15.0672C10.0002 15.1109 10.0117 15.154 10.0335 15.1919C10.0554 15.2298 10.0868 15.2614 10.1247 15.2833C10.1626 15.3053 10.2055 15.3169 10.2493 15.3171C10.2931 15.3172 10.3361 15.3059 10.3742 15.2842L14.8242 12.7172C14.8622 12.6952 14.8937 12.6637 14.9157 12.6257C14.9376 12.5877 14.9491 12.5445 14.9491 12.5007C14.9491 12.4568 14.9376 12.4137 14.9157 12.3757C14.8937 12.3377 14.8622 12.3061 14.8242 12.2842L10.3742 9.71717C10.3362 9.69549 10.2933 9.68414 10.2496 9.68425C10.2059 9.68435 10.163 9.6959 10.1251 9.71776C10.0873 9.73961 10.0558 9.771 10.0339 9.80879C10.012 9.84659 10.0003 9.88947 10.0002 9.93317V15.0672Z" fill="white"/>
</svg>
