<svg width="24" height="25" viewBox="0 0 24 25" fill="none" xmlns="http://www.w3.org/2000/svg">
<path fill-rule="evenodd" clip-rule="evenodd" d="M12 21C16.694 21 20.5 17.194 20.5 12.5C20.5 7.806 16.694 4 12 4C7.306 4 3.5 7.806 3.5 12.5C3.5 17.194 7.306 21 12 21ZM12 22.5C17.523 22.5 22 18.023 22 12.5C22 6.977 17.523 2.5 12 2.5C6.477 2.5 2 6.977 2 12.5C2 18.023 6.477 22.5 12 22.5ZM12 17.5C14.761 17.5 17 15.261 17 12.5C17 9.739 14.761 7.5 12 7.5C9.239 7.5 7 9.739 7 12.5C7 15.261 9.239 17.5 12 17.5ZM12 18.5C15.314 18.5 18 15.814 18 12.5C18 9.186 15.314 6.5 12 6.5C8.686 6.5 6 9.186 6 12.5C6 15.814 8.686 18.5 12 18.5ZM10.757 9.954C10.424 9.754 10 9.994 10 10.384V14.617C10 15.006 10.424 15.246 10.757 15.046L15 12.5L10.757 9.954Z" fill="white"/>
</svg>
