<svg width="24" height="25" viewBox="0 0 24 25" fill="none" xmlns="http://www.w3.org/2000/svg">
<path d="M22.64 13.7004C22.63 12.6604 22.02 7.72037 21.74 6.96037C21.55 6.46037 21.16 5.56037 20.43 5.01037C19.49 4.31037 18.73 4.18037 17.75 4.16037C17.06 4.14037 6.12002 5.53037 4.79002 6.01037C3.80002 6.38037 3.03002 6.85037 2.42002 7.45037C1.43002 8.43037 1.24002 9.38037 1.40002 11.0504C1.54002 12.5704 2.25002 17.6004 2.61002 18.6404C3.00002 19.7904 3.72002 20.6704 4.91002 20.8004C8.53002 21.1904 9.39001 19.2004 17.81 19.2204C20.36 19.2304 21.63 18.1104 22.16 17.1404C22.77 15.9904 22.65 14.4904 22.64 13.7004Z" fill="#FF0033"/>
<path d="M17.4697 4.5402C18.4097 4.5602 19.1397 4.6802 20.0297 5.3502C20.7297 5.8802 21.1097 6.7402 21.2797 7.2102C21.5597 7.9402 22.1297 12.6502 22.1397 13.6402C22.1497 14.4002 22.2597 15.8302 21.6697 16.9202C21.1697 17.8402 19.9597 18.9002 17.5397 18.9002C17.5297 18.9002 17.5297 18.9002 17.5197 18.9002C17.4797 18.9002 17.4497 18.9002 17.4097 18.9002C10.1797 18.9002 8.85972 20.4602 6.07972 20.4602C5.80972 20.4602 5.51972 20.4402 5.20972 20.4102C4.07972 20.2902 3.38972 19.4502 3.01972 18.3502C2.67972 17.3602 2.00972 12.5602 1.86972 11.1102C1.71972 9.5102 1.89972 8.6002 2.84972 7.6702C3.42972 7.1002 4.16972 6.6502 5.11972 6.3002C6.37972 5.8502 16.7297 4.5402 17.4697 4.5402ZM17.4697 3.7002C16.9997 3.7002 13.9397 4.0702 11.3797 4.4202C8.81972 4.7702 5.59972 5.2502 4.83972 5.5302C3.77972 5.9202 2.93972 6.4302 2.27972 7.0902C1.04972 8.3002 0.899715 9.5602 1.04972 11.2002C1.16972 12.4702 1.84972 17.4802 2.23972 18.6302C2.76972 20.1802 3.78972 21.1102 5.12972 21.2502C5.45972 21.2902 5.76972 21.3002 6.08972 21.3002C7.25972 21.3002 8.18972 21.0502 9.26972 20.7602C10.9597 20.3102 13.0697 19.7402 17.4197 19.7402H17.5297H17.5497C18.6197 19.7402 21.2297 19.5002 22.4097 17.3202C23.0397 16.1502 23.0097 14.7302 22.9897 13.8902C22.9897 13.8002 22.9897 13.7102 22.9797 13.6302C22.9697 12.6202 22.3897 7.7802 22.0597 6.9102C21.6797 5.9102 21.1697 5.1602 20.5297 4.6802C19.4797 3.8902 18.5897 3.7202 17.4897 3.7002H17.4797H17.4697Z" fill="#212121"/>
<path d="M15.2796 12.3499C15.2496 12.3699 15.2296 12.3799 15.1996 12.3999C14.9896 12.5399 14.7796 12.6799 14.5696 12.8299C14.0796 13.1599 11.2396 15.0899 11.2396 15.0899C10.9996 15.2699 10.5396 15.5599 10.3696 15.4699C10.1996 15.3799 10.1396 14.7499 10.0996 14.4499L10.0896 14.3799C10.0396 14.0199 9.62963 10.5499 9.57963 10.1699C9.55963 10.0599 9.49963 9.66993 9.61963 9.57993C9.74963 9.47993 10.0896 9.58993 10.1996 9.62993C10.8596 9.83993 14.1296 10.9799 15.1496 11.4899C15.1796 11.5099 15.2096 11.5199 15.2496 11.5299C15.3996 11.5899 15.5996 11.6799 15.5996 11.9199C15.5996 12.1499 15.4196 12.2599 15.2796 12.3499Z" fill="white"/>
<path d="M10.0401 10.0901C11.1801 10.4701 13.8101 11.4101 15.0501 11.9601C14.9001 12.0601 14.7501 12.1601 14.6001 12.2601C14.0201 12.6501 10.6601 14.9401 10.6601 14.9401L10.6401 14.9501L10.6201 14.9601C10.6201 14.9301 10.6101 14.9101 10.6101 14.8901L10.5901 14.7601L10.5801 14.6801C10.5401 14.3701 10.2701 12.1001 10.1001 10.7401C10.0801 10.4801 10.0601 10.2601 10.0401 10.0901ZM9.40008 9.06006C9.33008 9.06006 9.26008 9.07006 9.22008 9.11006C9.07008 9.22006 9.15008 9.69006 9.17008 9.81006C9.22008 10.2601 9.71008 14.3701 9.77008 14.8001L9.78008 14.8801C9.83008 15.2401 9.90008 15.9801 10.1101 16.0901C10.1401 16.1001 10.1701 16.1101 10.2101 16.1101C10.4601 16.1101 10.8901 15.8301 11.1401 15.6401C11.1401 15.6401 14.5001 13.3501 15.0801 12.9601C15.3301 12.7901 15.5801 12.6201 15.8301 12.4501C15.8601 12.4301 15.8901 12.4101 15.9301 12.3901C16.1001 12.2901 16.3101 12.1601 16.3101 11.8901C16.3001 11.6001 16.0701 11.5001 15.9001 11.4301C15.8601 11.4101 15.8201 11.4001 15.7901 11.3801C14.5801 10.7701 10.7001 9.42006 9.92008 9.17006C9.80008 9.13006 9.58008 9.06006 9.40008 9.06006Z" fill="#212121"/>
</svg>
