<svg width="24" height="25" viewBox="0 0 24 25" fill="none" xmlns="http://www.w3.org/2000/svg">
<path fill-rule="evenodd" clip-rule="evenodd" d="M17.53 12.03C17.823 11.737 17.823 11.263 17.53 10.97C17.237 10.677 16.763 10.677 16.47 10.97L12.75 14.69V3.5C12.75 3.086 12.414 2.75 12 2.75C11.586 2.75 11.25 3.086 11.25 3.5V14.69L7.53 10.97C7.237 10.677 6.763 10.677 6.47 10.97C6.177 11.263 6.177 11.737 6.47 12.03L11.47 17.03L12 17.56L12.53 17.03L17.53 12.03ZM19.25 21C19.664 21 20 20.664 20 20.25C20 19.836 19.664 19.5 19.25 19.5H4.75C4.336 19.5 4 19.836 4 20.25C4 20.664 4.336 21 4.75 21H19.25Z" fill="white"/>
</svg>
