<svg width="24" height="25" viewBox="0 0 24 25" fill="none" xmlns="http://www.w3.org/2000/svg">
<path d="M21.58 7.69C21.35 6.83 20.67 6.15 19.81 5.92C18.25 5.5 12 5.5 12 5.5C12 5.5 5.75 5.5 4.19 5.92C3.33 6.15 2.65 6.83 2.42 7.69C2 9.25 2 12.5 2 12.5C2 12.5 2 15.75 2.42 17.31C2.65 18.17 3.33 18.85 4.19 19.08C5.75 19.5 12 19.5 12 19.5C12 19.5 18.25 19.5 19.81 19.08C20.67 18.85 21.35 18.17 21.58 17.31C22 15.75 22 12.5 22 12.5C22 12.5 22 9.25 21.58 7.69Z" fill="#FF0033"/>
<path d="M10 15.5L15 12.5L10 9.5V15.5Z" fill="white"/>
</svg>
