<svg width="24" height="25" viewBox="0 0 24 25" fill="none" xmlns="http://www.w3.org/2000/svg">
<path fill-rule="evenodd" clip-rule="evenodd" d="M13.4977 5.398L13.5507 6.198L14.2447 6.598C15.5967 7.378 16.5007 8.834 16.5007 10.5V13.392C16.5007 14.389 16.7707 15.367 17.2847 16.222L18.3507 18H5.64975L6.71675 16.222C7.22975 15.367 7.50075 14.389 7.50075 13.392V10.5C7.50075 8.834 8.40475 7.378 9.75675 6.598L10.4507 6.198L10.5037 5.398C10.5557 4.618 11.2067 4 12.0007 4C12.7947 4 13.4457 4.618 13.4977 5.398ZM6.00075 10.5C6.00075 8.276 7.21075 6.335 9.00775 5.299C9.11075 3.736 10.4107 2.5 12.0007 2.5C13.5907 2.5 14.8907 3.736 14.9937 5.299C16.7907 6.335 18.0007 8.276 18.0007 10.5V13.392C18.0007 14.117 18.1977 14.828 18.5707 15.45L20.0917 17.985C20.4917 18.652 20.0117 19.5 19.2347 19.5H15.0007C15.0007 20.296 14.6847 21.059 14.1217 21.621C13.5597 22.184 12.7967 22.5 12.0007 22.5C11.2047 22.5 10.4417 22.184 9.87975 21.621C9.31675 21.06 9.00075 20.296 9.00075 19.5H4.76675C3.98975 19.5 3.50975 18.652 3.90975 17.985L5.43075 15.45C5.80375 14.828 6.00075 14.117 6.00075 13.392V10.5ZM10.5007 19.5C10.5007 19.898 10.6587 20.28 10.9407 20.56C11.2207 20.842 11.6027 21 12.0007 21C12.3987 21 12.7807 20.842 13.0607 20.56C13.3427 20.28 13.5007 19.898 13.5007 19.5H10.5007Z" fill="white"/>
</svg>
