<svg width="93" height="21" viewBox="0 0 93 21" fill="none" xmlns="http://www.w3.org/2000/svg">
<g clip-path="url(#clip0_71_402)">
<path d="M14.4848 20.5C14.4848 20.5 23.5695 20.5 25.8229 19.9C27.0917 19.56 28.0459 18.58 28.3808 17.37C29 15.15 29 10.48 29 10.48C29 10.48 29 5.84 28.3808 3.64C28.0459 2.4 27.0917 1.44 25.8229 1.11C23.5695 0.5 14.4848 0.5 14.4848 0.5C14.4848 0.5 5.42037 0.5 3.17711 1.11C1.9286 1.44 0.954148 2.4 0.59888 3.64C0 5.84 0 10.48 0 10.48C0 10.48 0 15.15 0.59888 17.37C0.954148 18.58 1.9286 19.56 3.17711 19.9C5.42037 20.5 14.4848 20.5 14.4848 20.5Z" fill="#FF0033"/>
<path d="M19 10.5L11.5 6.25V14.75L19 10.5Z" fill="white"/>
<path d="M37.1384 19.4001V13.9401L40.6084 2.6001H38.0184L36.6984 7.7501C36.3984 8.9301 36.1284 10.1601 35.9284 11.3001H35.7684C35.6584 10.3001 35.3384 8.9901 35.0184 7.7301L33.7384 2.6001H31.1484L34.5684 13.9401V19.4001H37.1384Z" fill="white"/>
<path d="M44.1012 6.7998C41.0712 6.7998 40.0312 8.5498 40.0312 12.3198V14.1098C40.0312 17.4898 40.6812 19.6098 44.0412 19.6098C47.3512 19.6098 48.0612 17.5898 48.0612 14.1098V12.3198C48.0612 8.9498 47.3812 6.7998 44.1012 6.7998ZM45.3913 15.2198C45.3913 16.8598 45.1013 17.8898 44.0513 17.8898C43.0213 17.8898 42.7313 16.8498 42.7313 15.2198V11.1798C42.7313 9.7798 42.9313 8.5298 44.0513 8.5298C45.2313 8.5298 45.3913 9.8498 45.3913 11.1798V15.2198Z" fill="white"/>
<path d="M52.2714 19.59C53.7314 19.59 54.6413 18.98 55.3913 17.88H55.5014L55.6114 19.4H57.6012V7.04004H54.9613V16.97C54.6812 17.46 54.0312 17.82 53.4212 17.82C52.6512 17.82 52.4114 17.21 52.4114 16.19V7.04004H49.7812V16.31C49.7812 18.32 50.3614 19.59 52.2714 19.59Z" fill="white"/>
<path d="M62.8258 19.4001V4.6501H65.8658V2.6001H57.1758V4.6501H60.2158V19.4001H62.8258Z" fill="white"/>
<path d="M67.8728 19.59C69.3328 19.59 70.2428 18.98 70.9928 17.88H71.1028L71.2128 19.4H73.2028V7.04004H70.5628V16.97C70.2828 17.46 69.6328 17.82 69.0228 17.82C68.2528 17.82 68.0128 17.21 68.0128 16.19V7.04004H65.3828V16.31C65.3828 18.32 65.9628 19.59 67.8728 19.59Z" fill="white"/>
<path d="M80.6745 6.76994C79.3945 6.76994 78.4745 7.32994 77.8645 8.23994H77.7345C77.8145 7.03994 77.8745 6.01994 77.8745 5.20994V1.93994H75.3245L75.3145 12.6799L75.3245 19.3999H77.5445L77.7345 18.1999H77.8045C78.3945 19.0099 79.3045 19.5199 80.5145 19.5199C82.5245 19.5199 83.3845 17.7899 83.3845 14.1099V12.1999C83.3845 8.75994 82.9945 6.76994 80.6745 6.76994ZM80.7645 14.1099C80.7645 16.4099 80.4245 17.7799 79.3545 17.7799C78.8545 17.7799 78.1645 17.5399 77.8545 17.0899V9.73994C78.1245 9.03994 78.7245 8.52994 79.3945 8.52994C80.4745 8.52994 80.7645 9.83994 80.7645 12.2299V14.1099Z" fill="white"/>
<path d="M92.6527 12C92.6527 9.02006 92.3527 6.81006 88.9227 6.81006C85.6927 6.81006 84.9727 8.96006 84.9727 12.12V14.29C84.9727 17.37 85.6327 19.61 88.8427 19.61C91.3827 19.61 92.6927 18.34 92.5427 15.88L90.2927 15.76C90.2627 17.28 89.9127 17.9 88.9027 17.9C87.6327 17.9 87.5727 16.69 87.5727 14.89V14.05H92.6527V12ZM88.8627 8.47006C90.0827 8.47006 90.1727 9.62006 90.1727 11.57V12.58H87.5727V11.57C87.5727 9.64006 87.6527 8.47006 88.8627 8.47006Z" fill="white"/>
</g>
<defs>
<clipPath id="clip0_71_402">
<rect width="93" height="20" fill="white" transform="translate(0 0.5)"/>
</clipPath>
</defs>
</svg>
