<svg width="24" height="25" viewBox="0 0 24 25" fill="none" xmlns="http://www.w3.org/2000/svg">
<path fill-rule="evenodd" clip-rule="evenodd" d="M12 21C13.894 21 15.643 20.38 17.055 19.334C16.6348 18.3537 15.9386 17.5168 15.0513 16.925C14.164 16.3333 13.1237 16.0123 12.0572 16.0012C10.9907 15.9901 9.94402 16.2893 9.04452 16.8623C8.14502 17.4354 7.43156 18.2577 6.991 19.229C6.97549 19.2633 6.95744 19.2964 6.937 19.328C8.40039 20.4164 10.1763 21.0028 12 21ZM16.079 15.811C16.9792 16.4565 17.7133 17.3065 18.221 18.291C19.3488 17.0795 20.0984 15.565 20.3777 13.9334C20.6569 12.3019 20.4537 10.6243 19.793 9.10665C19.1324 7.58896 18.0429 6.2972 16.6585 5.38994C15.274 4.48267 13.6548 3.99937 11.9995 3.99937C10.3442 3.99937 8.725 4.48267 7.34054 5.38994C5.95608 6.2972 4.86664 7.58896 4.20595 9.10665C3.54526 10.6243 3.34208 12.3019 3.62134 13.9334C3.90061 15.565 4.65016 17.0795 5.778 18.291C6.2388 17.3976 6.88662 16.614 7.67738 15.9933C8.46813 15.3727 9.38328 14.9297 10.3606 14.6944C11.3379 14.4591 12.3544 14.437 13.341 14.6297C14.3275 14.8224 15.2611 15.2253 16.078 15.811H16.079ZM12 22.5C17.523 22.5 22 18.023 22 12.5C22 6.977 17.523 2.5 12 2.5C6.477 2.5 2 6.977 2 12.5C2 18.023 6.477 22.5 12 22.5ZM14 10C14 10.5304 13.7893 11.0391 13.4142 11.4142C13.0391 11.7893 12.5304 12 12 12C11.4696 12 10.9609 11.7893 10.5858 11.4142C10.2107 11.0391 10 10.5304 10 10C10 9.46957 10.2107 8.96086 10.5858 8.58579C10.9609 8.21071 11.4696 8 12 8C12.5304 8 13.0391 8.21071 13.4142 8.58579C13.7893 8.96086 14 9.46957 14 10ZM15.5 10C15.5 10.4596 15.4095 10.9148 15.2336 11.3394C15.0577 11.764 14.7999 12.1499 14.4749 12.4749C14.1499 12.7999 13.764 13.0577 13.3394 13.2336C12.9148 13.4095 12.4596 13.5 12 13.5C11.5404 13.5 11.0852 13.4095 10.6606 13.2336C10.236 13.0577 9.85013 12.7999 9.52513 12.4749C9.20012 12.1499 8.94231 11.764 8.76642 11.3394C8.59053 10.9148 8.5 10.4596 8.5 10C8.5 9.07174 8.86875 8.1815 9.52513 7.52513C10.1815 6.86875 11.0717 6.5 12 6.5C12.9283 6.5 13.8185 6.86875 14.4749 7.52513C15.1313 8.1815 15.5 9.07174 15.5 10Z" fill="white"/>
</svg>
