<svg width="24" height="25" viewBox="0 0 24 25" fill="none" xmlns="http://www.w3.org/2000/svg">
<path fill-rule="evenodd" clip-rule="evenodd" d="M6.5 4H17.5V9.5C17.5 12.538 15.038 15 12 15C8.962 15 6.5 12.538 6.5 9.5V4ZM5 4C5 3.172 5.672 2.5 6.5 2.5H17.5C18.328 2.5 19 3.172 19 4V4.5H21C21.552 4.5 22 4.948 22 5.5V8.5C22 10.993 20.175 13.06 17.788 13.438C16.706 15.026 14.988 16.145 13 16.429V18H14.5C15.328 18 16 18.672 16 19.5V22.5H8V19.5C8 18.672 8.672 18 9.5 18H11V16.43C9.013 16.145 7.294 15.026 6.212 13.438C3.825 13.06 2 10.993 2 8.5V5.5C2 4.948 2.448 4.5 3 4.5H5V4ZM5 5.75H3.25V8.5C3.25 10.008 4.14 11.308 5.424 11.903C5.15 11.154 5 10.345 5 9.5V5.75ZM18.576 11.903C19.86 11.308 20.75 10.008 20.75 8.5V5.75H19V9.5C19 10.344 18.85 11.154 18.576 11.903ZM9.5 21V19.5H14.5V21H9.5Z" fill="white"/>
</svg>
