<svg width="24" height="25" viewBox="0 0 24 25" fill="none" xmlns="http://www.w3.org/2000/svg">
<path fill-rule="evenodd" clip-rule="evenodd" d="M6.379 18H19C19.276 18 19.5 17.776 19.5 17.5V5.5C19.5 5.224 19.276 5 19 5H5C4.724 5 4.5 5.224 4.5 5.5V19.879L5.94 18.439L6.379 18ZM4.5 22L4.467 22.033L4.207 22.293L3.854 22.646C3.539 22.961 3 22.738 3 22.293V5.5C3 4.395 3.895 3.5 5 3.5H19C20.105 3.5 21 4.395 21 5.5V17.5C21 18.605 20.105 19.5 19 19.5H7L4.5 22ZM12 6.5C12.552 6.5 13 6.948 13 7.5V11.5C13 12.052 12.552 12.5 12 12.5C11.448 12.5 11 12.052 11 11.5V7.5C11 6.948 11.448 6.5 12 6.5ZM12 16.25C12.69 16.25 13.25 15.69 13.25 15C13.25 14.31 12.69 13.75 12 13.75C11.31 13.75 10.75 14.31 10.75 15C10.75 15.69 11.31 16.25 12 16.25Z" fill="white"/>
</svg>
