<svg width="24" height="25" viewBox="0 0 24 25" fill="none" xmlns="http://www.w3.org/2000/svg">
<path fill-rule="evenodd" clip-rule="evenodd" d="M14.813 5.518L14.41 7L14 8.5H19.192C20.018 8.5 20.801 8.876 21.317 9.522C22.028 10.41 22.111 11.647 21.526 12.623L21 13.5L21.165 13.913C21.684 15.209 21.489 16.682 20.651 17.798L20.5 18V18.5C20.5 20.157 19.157 21.5 17.5 21.5H5C3.895 21.5 3 20.605 3 19.5V11.5C3 10.395 3.895 9.5 5 9.5H7V9.782C7 8.948 7.26 8.135 7.745 7.457L12 1.5L13.1 1.972C14.476 2.562 15.207 4.075 14.813 5.518ZM7 11H5C4.724 11 4.5 11.224 4.5 11.5V19.5C4.5 19.776 4.724 20 5 20H7V11ZM17.5 20H8.5V9.782C8.5 9.261 8.663 8.752 8.966 8.329L12.519 3.354C13.201 3.652 13.562 4.405 13.366 5.124L12.553 8.105C12.43 8.556 12.524 9.039 12.808 9.41C13.092 9.782 13.533 10 14 10H19.192C19.562 10 19.914 10.169 20.146 10.459C20.466 10.858 20.503 11.413 20.24 11.852L19.714 12.728C19.473 13.13 19.434 13.622 19.607 14.058L19.772 14.47C20.096 15.28 19.975 16.2 19.452 16.898L19.3 17.1C19.105 17.36 19 17.675 19 18V18.5C19 19.328 18.328 20 17.5 20Z" fill="white"/>
</svg>
