<svg width="24" height="25" viewBox="0 0 24 25" fill="none" xmlns="http://www.w3.org/2000/svg">
<path fill-rule="evenodd" clip-rule="evenodd" d="M14 2.5L12.5 3.386L7.305 6.456C4.637 8.033 3 10.901 3 14C3 18.694 6.806 22.5 11.5 22.5C16.194 22.5 20 18.694 20 14V1.5L18.5 2.5L15.5 4.5L14 5.5V2.5ZM8.068 7.748L12.5 5.128V8.303L14.832 6.748L18.5 4.303V14C18.5 17.866 15.366 21 11.5 21C7.634 21 4.5 17.866 4.5 14C4.5 11.432 5.857 9.054 8.068 7.748ZM9 15.5C9 14.274 9.693 13.154 10.789 12.606L15 10.5V15.5C15 17.157 13.657 18.5 12 18.5C10.343 18.5 9 17.157 9 15.5Z" fill="white"/>
</svg>
