<svg width="24" height="25" viewBox="0 0 24 25" fill="none" xmlns="http://www.w3.org/2000/svg">
<path d="M11.13 1.71C11.61 1.43 12.39 1.43 12.87 1.71L20.88 6.35C21.36 6.63 21.75 7.32 21.75 7.88V17.12C21.75 17.68 21.36 18.37 20.88 18.65L12.87 23.29C12.39 23.57 11.61 23.57 11.13 23.29L3.12 18.65C2.64 18.37 2.25 17.68 2.25 17.12V7.88C2.25 7.32 2.64 6.63 3.12 6.35L11.13 1.71Z" fill="#FF0033"/>
<path d="M10 15.5L15 12.5L10 9.5V15.5Z" fill="white"/>
<path d="M12 6.5C12.11 6.5 12.19 6.53 12.21 6.54L17.1 9.36C17.15 9.39 17.24 9.56 17.24 9.73V15.4C17.24 15.57 17.15 15.74 17.1 15.77L12.2 18.6C12.17 18.61 12.1 18.64 11.99 18.64C11.88 18.64 11.8 18.61 11.78 18.6L6.88 15.77C6.83 15.74 6.73 15.57 6.73 15.4V9.74C6.73 9.57 6.83 9.4 6.87 9.37L11.77 6.54C11.82 6.53 11.89 6.5 12 6.5ZM12 5.5C11.75 5.5 11.49 5.56 11.29 5.68L6.39 8.5C5.99 8.73 5.75 9.27 5.75 9.74V15.41C5.75 15.88 5.99 16.41 6.39 16.65L11.29 19.48C11.49 19.6 11.75 19.66 12 19.66C12.25 19.66 12.51 19.6 12.71 19.48L17.61 16.65C18.02 16.41 18.25 15.88 18.25 15.41V9.74C18.25 9.27 18.02 8.74 17.61 8.5L12.71 5.68C12.51 5.56 12.26 5.5 12 5.5Z" fill="white"/>
</svg>
