<svg width="24" height="25" viewBox="0 0 24 25" fill="none" xmlns="http://www.w3.org/2000/svg">
<path fill-rule="evenodd" clip-rule="evenodd" d="M4 5C4 4.60218 4.15804 4.22064 4.43934 3.93934C4.72064 3.65804 5.10218 3.5 5.5 3.5H18.5C18.8978 3.5 19.2794 3.65804 19.5607 3.93934C19.842 4.22064 20 4.60218 20 5H4ZM20.5 8H3.5V19H20.5V8ZM3.5 6.5C3.10218 6.5 2.72064 6.65804 2.43934 6.93934C2.15804 7.22064 2 7.60218 2 8V19C2 19.3978 2.15804 19.7794 2.43934 20.0607C2.72064 20.342 3.10218 20.5 3.5 20.5H20.5C20.8978 20.5 21.2794 20.342 21.5607 20.0607C21.842 19.7794 22 19.3978 22 19V8C22 7.60218 21.842 7.22064 21.5607 6.93934C21.2794 6.65804 20.8978 6.5 20.5 6.5H3.5ZM10.757 10.954C10.681 10.9085 10.5944 10.884 10.5058 10.8829C10.4173 10.8819 10.33 10.9044 10.253 10.9481C10.176 10.9919 10.112 11.0553 10.0676 11.1319C10.0231 11.2084 9.9998 11.2954 10 11.384V15.617C9.99998 15.7055 10.0234 15.7924 10.068 15.8688C10.1125 15.9452 10.1765 16.0085 10.2535 16.0521C10.3304 16.0957 10.4176 16.1181 10.5061 16.1171C10.5945 16.116 10.6811 16.0915 10.757 16.046L15 13.5L10.757 10.954Z" fill="white"/>
</svg>
