<svg width="24" height="25" viewBox="0 0 24 25" fill="none" xmlns="http://www.w3.org/2000/svg">
<path fill-rule="evenodd" clip-rule="evenodd" d="M14.3029 6.957L13.6349 6.679L12.8709 4H11.1339L10.3679 6.68L9.69987 6.957C9.21787 7.157 8.76587 7.42 8.35587 7.735L7.78087 8.175L5.07487 7.498L4.20687 9.002L6.14487 11.005L6.05187 11.721C6.01887 11.976 6.00187 12.235 6.00187 12.5C6.00187 12.764 6.01887 13.024 6.05187 13.279L6.14487 13.995L4.20687 15.998L5.07487 17.502L7.78087 16.825L8.35587 17.265C8.76587 17.58 9.21787 17.842 9.69987 18.043L10.3679 18.321L11.1339 21H12.8709L13.6359 18.32L14.3039 18.043C14.7869 17.843 15.2379 17.58 15.6489 17.265L16.2229 16.825L18.9289 17.502L19.7979 15.998L17.8599 13.995L17.9519 13.279C17.9849 13.024 18.0019 12.765 18.0019 12.5C18.0019 12.236 17.9849 11.976 17.9519 11.721L17.8599 11.005L19.7979 9.002L18.9289 7.498L16.2229 8.175L15.6489 7.735C15.2389 7.42 14.7869 7.158 14.3039 6.957H14.3029ZM14.8789 5.571L14.2089 3.225C14.0859 2.796 13.6929 2.5 13.2469 2.5H10.7549C10.3089 2.5 9.91687 2.796 9.79387 3.225L9.12387 5.572C8.51887 5.823 7.95387 6.152 7.44187 6.544L5.07187 5.951C4.63887 5.843 4.18687 6.035 3.96387 6.421L2.71787 8.58C2.49487 8.966 2.55487 9.454 2.86487 9.775L4.56287 11.53C4.52287 11.848 4.50087 12.172 4.50087 12.501C4.50087 12.83 4.52187 13.154 4.56287 13.471L2.86487 15.227C2.55487 15.547 2.49487 16.036 2.71787 16.422L3.96387 18.58C4.18687 18.966 4.63887 19.158 5.07287 19.05L7.44187 18.457C7.95387 18.85 8.51887 19.177 9.12287 19.429L9.79287 21.776C9.91687 22.205 10.3089 22.501 10.7549 22.501H13.2469C13.6929 22.501 14.0859 22.205 14.2079 21.776L14.8779 19.429C15.4829 19.178 16.0479 18.849 16.5599 18.457L18.9299 19.05C19.3629 19.158 19.8149 18.966 20.0389 18.58L21.2839 16.422C21.5069 16.036 21.4469 15.548 21.1369 15.227L19.4389 13.472C19.4789 13.154 19.5009 12.83 19.5009 12.501C19.5009 12.172 19.4799 11.848 19.4389 11.531L21.1369 9.775C21.4469 9.455 21.5069 8.966 21.2839 8.58L20.0389 6.42C19.8149 6.034 19.3629 5.842 18.9289 5.95L16.5599 6.543C16.0479 6.15 15.4829 5.823 14.8789 5.571ZM15.5009 12.5C15.5009 14.433 13.9339 16 12.0009 16C10.0679 16 8.50087 14.433 8.50087 12.5C8.50087 10.567 10.0679 9 12.0009 9C13.9339 9 15.5009 10.567 15.5009 12.5ZM14.0009 12.5C14.0009 13.605 13.1059 14.5 12.0009 14.5C10.8959 14.5 10.0009 13.605 10.0009 12.5C10.0009 11.395 10.8959 10.5 12.0009 10.5C13.1059 10.5 14.0009 11.395 14.0009 12.5Z" fill="white"/>
</svg>
