<svg width="24" height="25" viewBox="0 0 24 25" fill="none" xmlns="http://www.w3.org/2000/svg">
<path fill-rule="evenodd" clip-rule="evenodd" d="M20.5 12.5C20.5 17.194 16.694 21 12 21C7.306 21 3.5 17.194 3.5 12.5C3.5 7.806 7.306 4 12 4C16.694 4 20.5 7.806 20.5 12.5ZM22 12.5C22 18.023 17.523 22.5 12 22.5C6.477 22.5 2 18.023 2 12.5C2 6.977 6.477 2.5 12 2.5C17.523 2.5 22 6.977 22 12.5ZM12.75 7.5C12.75 7.086 12.414 6.75 12 6.75C11.586 6.75 11.25 7.086 11.25 7.5V12.875L11.55 13.1L15.55 16.1C15.881 16.348 16.352 16.281 16.6 15.95C16.848 15.619 16.781 15.149 16.45 14.9L12.75 12.125V7.5Z" fill="white"/>
</svg>
