<svg width="24" height="25" viewBox="0 0 24 25" fill="none" xmlns="http://www.w3.org/2000/svg">
<path fill-rule="evenodd" clip-rule="evenodd" d="M12 8.24986L11.228 7.78585L7.042 5.27486L2.5 8.30286V14.6099L12 19.7899L21.5 14.6089V8.30286L16.958 5.27486L12.772 7.78585L12 8.24986ZM12 6.49986L7.814 3.98785C7.317 3.68985 6.692 3.70485 6.21 4.02685L1.668 7.05485C1.251 7.33285 1 7.79985 1 8.30286V14.6099C1 15.1579 1.3 15.6639 1.782 15.9259L11.282 21.1079C11.729 21.3519 12.271 21.3519 12.718 21.1079L22.218 15.9259C22.7 15.6639 23 15.1579 23 14.6099V8.30286C23 7.80086 22.75 7.33285 22.332 7.05485L17.79 4.02685C17.308 3.70485 16.683 3.68985 16.186 3.98785L12 6.49986ZM15.5 12.7499C15.5 13.4399 14.94 13.9999 14.25 13.9999C13.56 13.9999 13 13.4399 13 12.7499C13 12.0599 13.56 11.4999 14.25 11.4999C14.94 11.4999 15.5 12.0599 15.5 12.7499ZM7 8.49986C6.586 8.49986 6.25 8.83586 6.25 9.24986V10.7499H4.75C4.336 10.7499 4 11.0859 4 11.4999C4 11.9139 4.336 12.2499 4.75 12.2499H6.25V13.7499C6.25 14.1639 6.586 14.4999 7 14.4999C7.414 14.4999 7.75 14.1639 7.75 13.7499V12.2499H9.25C9.664 12.2499 10 11.9139 10 11.4999C10 11.0859 9.664 10.7499 9.25 10.7499H7.75V9.24986C7.75 8.83586 7.414 8.49986 7 8.49986ZM17.75 11.4999C18.44 11.4999 19 10.9399 19 10.2499C19 9.55986 18.44 8.99986 17.75 8.99986C17.06 8.99986 16.5 9.55986 16.5 10.2499C16.5 10.9399 17.06 11.4999 17.75 11.4999Z" fill="white"/>
</svg>
