<svg width="24" height="25" viewBox="0 0 24 25" fill="none" xmlns="http://www.w3.org/2000/svg">
<path fill-rule="evenodd" clip-rule="evenodd" d="M22.1459 11.646C22.216 11.7159 22.2637 11.8049 22.2831 11.902C22.3025 11.999 22.2927 12.0996 22.2549 12.191C22.2171 12.2824 22.153 12.3606 22.0708 12.4156C21.9886 12.4706 21.8919 12.5 21.7929 12.5H19.9999V20C19.9999 20.3978 19.8419 20.7794 19.5606 21.0607C19.2793 21.342 18.8978 21.5 18.4999 21.5H13.9999V13.5H9.99993V21.5H5.49993C5.1021 21.5 4.72057 21.342 4.43927 21.0607C4.15796 20.7794 3.99993 20.3978 3.99993 20V12.5H2.20693C2.10799 12.5 2.01128 12.4706 1.92905 12.4156C1.84681 12.3606 1.78274 12.2824 1.74495 12.191C1.70716 12.0996 1.69734 11.999 1.71674 11.902C1.73614 11.8049 1.78388 11.7159 1.85393 11.646L11.9999 1.5L22.1459 11.646Z" fill="white"/>
</svg>
