<svg width="24" height="25" viewBox="0 0 24 25" fill="none" xmlns="http://www.w3.org/2000/svg">
<path fill-rule="evenodd" clip-rule="evenodd" d="M16.2963 17.4958C14.7386 18.8718 12.7065 19.5875 10.6303 19.4915C8.55415 19.3954 6.59685 18.4951 5.17283 16.9812C3.7488 15.4673 2.96985 13.4587 3.00089 11.3805C3.03194 9.30234 3.87054 7.31783 5.33915 5.84715C6.80776 4.37646 8.79108 3.53505 10.8692 3.50107C12.9473 3.46709 14.9571 4.2432 16.473 5.66508C17.9889 7.08697 18.8919 9.043 18.9909 11.119C19.0899 13.1951 18.377 15.2281 17.0033 16.7878L20.9123 20.6978L20.2053 21.4048L16.2963 17.4958ZM18.0003 11.4998C18.0003 9.64328 17.2628 7.8628 15.95 6.55004C14.6373 5.23729 12.8568 4.49979 11.0003 4.49979C9.14376 4.49979 7.36328 5.23729 6.05052 6.55004C4.73777 7.8628 4.00027 9.64328 4.00027 11.4998C4.00027 12.419 4.18133 13.3293 4.53312 14.1786C4.8849 15.0279 5.40051 15.7995 6.05052 16.4495C6.70053 17.0995 7.47221 17.6152 8.32149 17.9669C9.17077 18.3187 10.081 18.4998 11.0003 18.4998C11.9195 18.4998 12.8298 18.3187 13.6791 17.9669C14.5283 17.6152 15.3 17.0995 15.95 16.4495C16.6 15.7995 17.1156 15.0279 17.4674 14.1786C17.8192 13.3293 18.0003 12.419 18.0003 11.4998Z" fill="white"/>
</svg>
