<svg width="24" height="25" viewBox="0 0 24 25" fill="none" xmlns="http://www.w3.org/2000/svg">
<path fill-rule="evenodd" clip-rule="evenodd" d="M19 3.49989C19 3.22889 18.854 2.97889 18.617 2.84589C18.38 2.71289 18.09 2.71889 17.859 2.85989L8.859 8.35989C8.636 8.49589 8.5 8.73889 8.5 8.99989V16.9009C8.059 16.6459 7.546 16.4999 7 16.4999C5.343 16.4999 4 17.8429 4 19.4999C4 21.1569 5.343 22.4999 7 22.4999C8.657 22.4999 10 21.1569 10 19.4999V12.4199L17.5 7.83689V13.9009C17.059 13.6459 16.546 13.4999 16 13.4999C14.343 13.4999 13 14.8429 13 16.4999C13 18.1569 14.343 19.4999 16 19.4999C17.657 19.4999 19 18.1569 19 16.4999V3.49989ZM17.5 16.4999C17.5 15.6719 16.828 14.9999 16 14.9999C15.172 14.9999 14.5 15.6719 14.5 16.4999C14.5 17.3279 15.172 17.9999 16 17.9999C16.828 17.9999 17.5 17.3279 17.5 16.4999ZM8.5 19.4999C8.5 18.6719 7.828 17.9999 7 17.9999C6.172 17.9999 5.5 18.6719 5.5 19.4999C5.5 20.3279 6.172 20.9999 7 20.9999C7.828 20.9999 8.5 20.3279 8.5 19.4999ZM17.5 6.07989L10 10.6619V9.41989L17.5 4.83589V6.07989Z" fill="white"/>
</svg>
