<svg width="24" height="25" viewBox="0 0 24 25" fill="none" xmlns="http://www.w3.org/2000/svg">
<path fill-rule="evenodd" clip-rule="evenodd" d="M3.5 12.5C3.5 17.194 7.306 21 12 21C16.694 21 20.5 17.194 20.5 12.5C20.5 7.806 16.694 4 12 4C7.306 4 3.5 7.806 3.5 12.5ZM12 2.5C6.477 2.5 2 6.977 2 12.5C2 18.023 6.477 22.5 12 22.5C17.523 22.5 22 18.023 22 12.5C22 6.977 17.523 2.5 12 2.5ZM14.245 10.005V10.002L14.242 9.957C14.238 9.913 14.23 9.843 14.212 9.757C14.178 9.583 14.109 9.357 13.978 9.138C13.744 8.748 13.244 8.255 12 8.255C10.756 8.255 10.256 8.749 10.022 9.138C9.891 9.358 9.822 9.583 9.787 9.758C9.77 9.843 9.762 9.913 9.758 9.958L9.755 10.002V10.006C9.751 10.421 9.415 10.755 9 10.755C8.583 10.755 8.245 10.417 8.245 10V9.978L8.246 9.942L8.254 9.828C8.262 9.736 8.277 9.61 8.307 9.461C8.365 9.167 8.484 8.767 8.727 8.361C9.244 7.501 10.244 6.745 12 6.745C13.756 6.745 14.756 7.501 15.272 8.362C15.516 8.767 15.635 9.167 15.693 9.462C15.723 9.61 15.739 9.736 15.746 9.828L15.754 9.942V9.978L15.755 9.991V9.999L15 10H15.755C15.755 10.799 15.506 11.397 15.079 11.847C14.705 12.242 14.226 12.481 13.877 12.655L13.837 12.675C13.439 12.875 13.191 13.008 13.017 13.191C12.881 13.334 12.755 13.549 12.755 14C12.755 14.417 12.417 14.755 12 14.755C11.583 14.755 11.245 14.417 11.245 14C11.245 13.201 11.494 12.603 11.921 12.153C12.295 11.758 12.774 11.519 13.123 11.345L13.163 11.325C13.561 11.125 13.809 10.992 13.983 10.809C14.118 10.666 14.244 10.453 14.245 10.005ZM12 18.75C12.69 18.75 13.25 18.19 13.25 17.5C13.25 16.81 12.69 16.25 12 16.25C11.31 16.25 10.75 16.81 10.75 17.5C10.75 18.19 11.31 18.75 12 18.75Z" fill="white"/>
</svg>
