<svg width="24" height="25" viewBox="0 0 24 25" fill="none" xmlns="http://www.w3.org/2000/svg">
<path fill-rule="evenodd" clip-rule="evenodd" d="M14.203 5.32983C12.463 4.79583 10.589 4.91183 8.929 5.65683C7.575 6.26483 6.439 7.25683 5.656 8.49983H8.25C8.664 8.49983 9 8.83583 9 9.24983C9 9.66383 8.664 9.99983 8.25 9.99983H3V4.74983C3 4.33583 3.336 3.99983 3.75 3.99983C4.164 3.99983 4.5 4.33583 4.5 4.74983V7.52483C5.435 6.11483 6.754 4.98883 8.315 4.28883C10.307 3.39483 12.556 3.25583 14.643 3.89683C16.731 4.53783 18.513 5.91683 19.66 7.77483C20.806 9.63283 21.238 11.8448 20.875 13.9978C20.511 16.1508 19.377 18.0978 17.685 19.4778C15.992 20.8568 13.855 21.5728 11.673 21.4938C9.491 21.4138 7.413 20.5448 5.824 19.0468C4.236 17.5478 3.246 15.5238 3.04 13.3498C3.001 12.9378 3.304 12.5718 3.716 12.5328C4.128 12.4928 4.494 12.7958 4.534 13.2078C4.705 15.0198 5.53 16.7068 6.854 17.9558C8.177 19.2038 9.909 19.9288 11.728 19.9958C13.546 20.0608 15.326 19.4638 16.738 18.3148C18.148 17.1648 19.093 15.5418 19.395 13.7478C19.698 11.9538 19.339 10.1108 18.383 8.56183C17.428 7.01383 15.943 5.86383 14.203 5.32983ZM12.75 7.99983C12.75 7.58583 12.414 7.24983 12 7.24983C11.586 7.24983 11.25 7.58583 11.25 7.99983V12.8858L11.564 13.1098L15.064 15.6098C15.401 15.8508 15.87 15.7728 16.11 15.4358C16.351 15.0988 16.273 14.6298 15.936 14.3898L12.75 12.1138V7.99983Z" fill="white"/>
</svg>
